<svg id="svg" version="1.1" height="66" width="410" xmlns="http://www.w3.org/2000/svg" xmlns:xlink="http://www.w3.org/1999/xlink" style="display: block;"><g id="svgg"><path id="path0" d="M27.390 3.542 C 27.442 3.931,27.568 5.375,27.670 6.750 C 27.772 8.125,27.920 9.400,27.998 9.583 C 28.076 9.767,28.301 11.979,28.498 14.500 C 28.695 17.021,28.920 19.233,28.997 19.417 C 29.075 19.600,29.301 21.813,29.500 24.333 C 29.699 26.854,29.925 29.067,30.002 29.250 C 30.080 29.433,30.304 31.608,30.500 34.083 C 30.696 36.558,30.921 38.733,30.999 38.917 C 31.076 39.100,31.301 41.313,31.498 43.833 C 31.695 46.354,31.920 48.567,31.998 48.750 C 32.115 49.027,32.500 53.092,32.500 54.050 C 32.500 54.334,33.070 54.457,33.225 54.207 C 33.268 54.138,33.436 52.019,33.598 49.499 C 33.760 46.979,33.941 44.879,33.999 44.833 C 34.058 44.788,34.276 42.050,34.484 38.750 C 34.692 35.450,34.925 32.600,35.003 32.417 C 35.080 32.233,35.305 29.458,35.503 26.250 C 35.700 23.042,35.924 20.267,36.000 20.083 C 36.075 19.900,36.299 17.125,36.497 13.917 C 36.695 10.708,36.919 7.965,36.995 7.821 C 37.071 7.677,37.187 6.496,37.254 5.196 L 37.376 2.833 32.336 2.833 L 27.295 2.833 27.390 3.542 M241.426 30.537 C 241.283 30.741,241.167 31.003,241.167 31.120 C 241.167 31.238,241.094 31.333,241.005 31.333 C 240.916 31.333,240.683 31.858,240.489 32.500 C 240.294 33.142,240.083 33.667,240.020 33.667 C 239.957 33.667,239.804 34.023,239.679 34.458 C 239.554 34.894,239.308 35.550,239.133 35.917 C 238.957 36.283,238.657 37.033,238.465 37.583 C 238.274 38.133,238.067 38.621,238.007 38.667 C 237.946 38.712,237.768 39.163,237.612 39.667 C 237.456 40.171,237.211 40.809,237.068 41.084 C 236.924 41.359,236.652 42.033,236.462 42.583 C 236.272 43.133,236.070 43.621,236.011 43.667 C 235.953 43.712,235.723 44.313,235.500 45.000 C 235.277 45.688,235.038 46.291,234.968 46.341 C 234.898 46.391,234.688 46.912,234.500 47.500 C 234.312 48.088,234.102 48.609,234.032 48.659 C 233.962 48.709,233.723 49.313,233.500 50.000 C 233.277 50.688,233.038 51.291,232.968 51.341 C 232.898 51.391,232.695 51.878,232.517 52.424 C 232.339 52.970,232.048 53.717,231.870 54.083 C 231.693 54.450,231.446 55.106,231.321 55.542 C 231.196 55.977,231.042 56.333,230.979 56.333 C 230.916 56.333,230.734 56.765,230.575 57.292 C 230.416 57.819,230.196 58.400,230.086 58.583 C 229.977 58.767,229.747 59.292,229.576 59.750 C 228.963 61.395,227.817 62.743,226.875 62.930 C 226.577 62.989,226.333 63.104,226.333 63.185 C 226.333 63.267,225.888 63.333,225.343 63.333 C 224.262 63.333,224.104 63.441,224.261 64.066 L 224.365 64.481 230.057 64.449 L 235.750 64.417 235.750 63.917 C 235.750 63.424,235.736 63.416,234.775 63.366 C 234.091 63.331,233.697 63.219,233.452 62.991 C 233.261 62.813,233.043 62.667,232.969 62.667 C 232.790 62.667,232.794 61.611,232.974 61.408 C 233.051 61.321,233.248 60.725,233.411 60.083 C 233.574 59.442,233.801 58.766,233.915 58.582 C 234.028 58.398,234.299 57.686,234.517 56.999 C 234.734 56.312,234.958 55.712,235.014 55.667 C 235.071 55.621,235.303 55.021,235.531 54.333 L 235.944 53.083 240.919 53.039 C 244.788 53.005,245.924 53.042,246.028 53.206 C 246.101 53.322,246.324 53.904,246.522 54.500 C 246.721 55.096,246.929 55.621,246.986 55.667 C 247.042 55.712,247.265 56.313,247.480 57.000 C 247.696 57.688,247.937 58.331,248.016 58.430 C 248.095 58.528,248.320 59.128,248.515 59.763 C 248.711 60.397,248.923 60.954,248.986 61.000 C 249.607 61.448,249.628 63.333,249.012 63.333 C 248.672 63.333,248.461 63.704,248.598 64.061 C 248.749 64.454,259.294 64.760,260.236 64.399 C 261.008 64.103,260.534 63.333,259.581 63.333 C 259.076 63.333,258.532 63.266,258.373 63.184 C 258.214 63.102,257.761 62.901,257.367 62.738 C 256.962 62.571,256.531 62.238,256.373 61.971 C 256.220 61.712,256.041 61.500,255.976 61.500 C 255.910 61.500,255.683 61.144,255.470 60.708 C 255.257 60.273,255.035 59.894,254.976 59.867 C 254.916 59.839,254.696 59.352,254.486 58.784 C 254.276 58.215,254.054 57.712,253.993 57.667 C 253.932 57.621,253.747 57.172,253.582 56.670 C 253.416 56.168,253.105 55.407,252.891 54.979 C 252.676 54.551,252.500 54.115,252.500 54.009 C 252.500 53.904,252.345 53.502,252.157 53.117 C 251.968 52.732,251.657 51.967,251.465 51.417 C 251.274 50.867,251.071 50.379,251.014 50.333 C 250.957 50.288,250.732 49.725,250.513 49.083 C 250.295 48.442,250.059 47.842,249.989 47.750 C 249.919 47.658,249.694 47.096,249.490 46.500 C 249.285 45.904,249.071 45.379,249.014 45.333 C 248.957 45.288,248.732 44.725,248.513 44.083 C 248.295 43.442,248.059 42.842,247.989 42.750 C 247.919 42.658,247.694 42.096,247.490 41.500 C 247.285 40.904,247.069 40.379,247.010 40.333 C 246.951 40.287,246.799 39.912,246.671 39.500 C 246.544 39.087,246.298 38.460,246.124 38.106 C 245.950 37.752,245.662 37.006,245.483 36.447 C 245.305 35.888,245.103 35.391,245.034 35.341 C 244.966 35.291,244.730 34.725,244.510 34.083 C 244.289 33.442,244.058 32.879,243.996 32.833 C 243.933 32.787,243.750 32.337,243.587 31.833 C 243.080 30.260,242.052 29.644,241.426 30.537 M93.719 30.542 C 93.557 30.794,93.544 31.372,93.333 47.817 C 93.241 55.004,93.101 60.966,93.023 61.067 C 92.944 61.168,92.831 61.508,92.771 61.822 C 92.642 62.502,92.234 63.000,91.808 63.000 C 91.638 63.000,91.500 63.072,91.500 63.159 C 91.500 63.247,90.994 63.340,90.375 63.367 L 89.250 63.417 89.250 63.917 L 89.250 64.417 95.279 64.449 C 101.667 64.483,101.781 64.470,101.637 63.716 C 101.591 63.474,101.390 63.408,100.582 63.372 C 99.223 63.312,98.053 62.803,97.711 62.124 C 97.370 61.447,97.173 59.555,97.170 56.908 C 97.168 55.529,97.100 54.329,97.019 54.242 C 96.939 54.155,96.820 51.056,96.755 47.356 C 96.625 39.857,96.539 40.307,97.833 41.720 C 98.246 42.170,98.982 42.961,99.470 43.478 C 99.958 43.994,100.896 45.017,101.554 45.750 C 105.009 49.601,120.428 64.787,120.993 64.895 C 122.247 65.135,122.147 66.230,122.415 49.324 C 122.646 34.764,122.701 33.333,123.019 33.333 C 123.100 33.333,123.167 33.223,123.167 33.088 C 123.167 32.733,124.041 32.333,124.817 32.333 C 125.752 32.333,126.333 32.036,126.333 31.557 L 126.333 31.167 120.333 31.167 L 114.333 31.167 114.333 31.577 C 114.333 32.124,114.773 32.333,115.922 32.333 C 118.621 32.333,118.569 32.135,118.857 43.333 C 118.946 46.771,119.055 50.877,119.100 52.458 C 119.145 54.040,119.149 55.333,119.110 55.333 C 119.071 55.333,118.293 54.565,117.380 53.625 C 112.964 49.076,109.821 45.831,109.025 45.000 C 108.542 44.496,106.558 42.468,104.615 40.493 C 102.673 38.518,100.071 35.830,98.833 34.521 C 94.805 30.257,94.887 30.333,94.347 30.333 C 94.075 30.333,93.793 30.427,93.719 30.542 M153.917 30.684 C 153.367 30.763,152.767 30.896,152.583 30.981 C 152.400 31.065,151.631 31.302,150.875 31.507 C 150.119 31.712,149.500 31.935,149.500 32.003 C 149.500 32.071,149.050 32.294,148.500 32.500 C 147.950 32.706,147.500 32.942,147.500 33.024 C 147.500 33.107,147.327 33.241,147.116 33.321 C 146.025 33.736,143.101 36.731,142.345 38.208 C 142.216 38.460,142.048 38.667,141.972 38.667 C 141.896 38.667,141.833 38.740,141.833 38.830 C 141.833 38.919,141.565 39.565,141.238 40.264 C 140.911 40.963,140.521 42.109,140.371 42.809 C 140.222 43.510,140.021 44.137,139.925 44.202 C 139.671 44.375,139.690 50.827,139.946 51.350 C 140.053 51.570,140.272 52.311,140.431 52.996 C 140.591 53.681,140.925 54.656,141.173 55.163 C 141.422 55.669,141.677 56.252,141.741 56.458 C 141.804 56.665,141.920 56.833,141.999 56.833 C 142.078 56.833,142.166 56.944,142.196 57.080 C 142.622 59.026,147.900 63.374,150.500 63.919 C 150.821 63.987,151.126 64.108,151.178 64.190 C 151.770 65.116,161.495 65.160,163.583 64.246 C 163.858 64.126,164.568 63.861,165.160 63.657 C 165.753 63.453,166.339 63.185,166.464 63.060 C 166.588 62.935,166.779 62.834,166.887 62.834 C 168.704 62.837,173.783 56.864,174.681 53.667 C 174.797 53.254,174.951 52.837,175.024 52.739 C 175.865 51.610,175.884 41.946,175.046 41.349 C 174.970 41.294,174.772 40.800,174.606 40.250 C 174.440 39.700,174.123 38.970,173.902 38.629 C 173.681 38.287,173.500 37.949,173.500 37.879 C 173.500 37.808,173.312 37.532,173.083 37.266 C 172.854 36.999,172.667 36.724,172.667 36.653 C 172.667 36.395,170.060 33.952,169.333 33.530 C 168.921 33.291,168.491 33.005,168.378 32.896 C 168.265 32.786,167.815 32.562,167.378 32.399 C 166.941 32.235,166.546 32.049,166.500 31.986 C 166.396 31.842,164.146 31.167,163.774 31.167 C 163.623 31.167,163.500 31.101,163.500 31.022 C 163.500 30.585,156.363 30.333,153.917 30.684 M307.843 30.892 C 307.640 31.425,307.168 34.092,307.167 34.708 C 307.167 34.960,307.088 35.167,306.992 35.167 C 306.592 35.167,306.884 37.245,307.292 37.303 C 307.775 37.372,308.025 37.104,308.399 36.116 C 309.065 34.353,311.021 33.857,317.375 33.838 L 319.167 33.833 319.167 47.240 C 319.167 54.614,319.102 60.687,319.023 60.736 C 318.944 60.784,318.832 61.177,318.772 61.608 C 318.655 62.467,318.285 63.000,317.808 63.000 C 317.638 63.000,317.500 63.071,317.500 63.158 C 317.500 63.245,317.069 63.339,316.542 63.367 C 315.599 63.416,315.583 63.425,315.583 63.917 L 315.583 64.417 322.667 64.417 L 329.750 64.417 329.750 63.917 C 329.750 63.418,329.748 63.417,328.667 63.366 C 328.071 63.338,327.512 63.245,327.425 63.158 C 327.338 63.071,327.128 63.000,326.958 63.000 C 325.239 63.000,325.277 63.335,325.208 47.517 L 325.149 33.784 328.366 33.886 C 330.854 33.965,331.848 34.064,332.750 34.323 C 333.392 34.507,333.974 34.659,334.045 34.662 C 334.340 34.673,335.333 35.892,335.333 36.243 C 335.333 37.091,335.539 37.638,335.893 37.733 C 336.582 37.917,336.667 37.503,336.667 33.952 L 336.667 30.634 335.625 30.753 C 335.052 30.818,334.558 30.938,334.528 31.019 C 334.455 31.212,311.382 31.214,311.263 31.021 C 311.213 30.941,310.778 30.828,310.295 30.770 C 309.812 30.712,309.099 30.620,308.711 30.565 C 308.065 30.474,307.991 30.502,307.843 30.892 M386.458 30.707 C 385.931 30.797,385.500 30.938,385.500 31.019 C 385.500 31.100,385.398 31.167,385.272 31.167 C 384.911 31.167,383.333 31.863,383.333 32.022 C 383.333 32.102,383.255 32.167,383.160 32.167 C 382.604 32.167,380.992 33.766,380.472 34.833 C 380.271 35.246,380.058 35.621,379.999 35.667 C 378.720 36.663,379.469 42.142,381.242 44.754 C 382.020 45.900,384.110 48.013,385.688 49.247 C 386.272 49.704,386.787 50.121,386.833 50.172 C 386.879 50.224,387.157 50.434,387.451 50.639 C 389.595 52.136,391.461 54.303,391.744 55.623 C 391.807 55.920,391.928 56.206,392.013 56.258 C 392.223 56.388,392.211 58.833,392.000 58.833 C 391.908 58.833,391.833 58.950,391.833 59.092 C 391.833 61.035,388.307 62.931,385.471 62.514 C 383.872 62.278,381.335 60.796,381.334 60.096 C 381.333 60.012,381.211 59.808,381.062 59.644 C 380.720 59.265,380.167 57.293,380.167 56.450 C 380.167 55.489,379.066 54.821,378.766 55.601 C 378.618 55.988,378.430 62.697,378.553 63.190 C 378.676 63.679,379.989 64.328,381.583 64.688 C 383.906 65.212,391.333 64.813,391.333 64.164 C 391.333 64.099,391.665 63.918,392.071 63.763 C 392.477 63.608,393.058 63.262,393.363 62.993 C 393.667 62.725,393.992 62.504,394.083 62.503 C 394.275 62.500,395.017 61.611,395.769 60.484 C 396.329 59.645,396.833 58.339,396.833 57.730 C 396.833 57.523,396.908 57.307,397.000 57.250 C 397.095 57.191,397.167 56.359,397.167 55.323 C 397.167 54.219,397.101 53.500,397.000 53.500 C 396.908 53.500,396.833 53.320,396.833 53.101 C 396.833 52.572,396.189 50.500,396.024 50.500 C 395.953 50.500,395.776 50.250,395.630 49.945 C 394.989 48.599,389.755 43.500,389.016 43.500 C 388.926 43.500,388.754 43.367,388.634 43.205 C 388.515 43.043,388.216 42.783,387.972 42.627 C 387.583 42.379,385.573 40.438,384.870 39.631 C 383.862 38.474,384.052 35.631,385.224 34.328 C 387.112 32.229,391.756 32.405,393.444 34.640 C 393.697 34.975,393.999 35.347,394.115 35.466 C 394.358 35.716,394.621 36.619,394.773 37.728 C 394.860 38.363,394.952 38.523,395.275 38.605 C 396.047 38.798,396.110 38.560,396.239 34.965 C 396.371 31.284,396.344 31.167,395.385 31.167 C 395.173 31.167,395.000 31.103,395.000 31.025 C 395.000 30.578,388.603 30.340,386.458 30.707 M184.278 31.278 C 183.737 31.818,184.369 32.260,185.841 32.373 C 187.664 32.512,188.454 33.105,189.343 35.000 C 189.622 35.596,189.930 36.227,190.027 36.402 C 190.124 36.577,190.345 37.132,190.517 37.634 C 190.690 38.136,190.897 38.630,190.977 38.732 C 191.058 38.834,191.217 39.217,191.331 39.583 C 191.446 39.950,191.705 40.587,191.907 41.000 C 192.108 41.412,192.418 42.162,192.594 42.667 C 192.770 43.171,192.965 43.621,193.027 43.668 C 193.089 43.715,193.307 44.240,193.511 44.835 C 193.715 45.430,193.935 45.954,194.000 46.000 C 194.064 46.046,194.289 46.608,194.500 47.250 C 194.711 47.892,194.945 48.457,195.021 48.507 C 195.097 48.557,195.312 49.079,195.500 49.667 C 195.688 50.254,195.897 50.776,195.966 50.826 C 196.034 50.876,196.270 51.442,196.490 52.083 C 196.711 52.725,196.942 53.288,197.004 53.333 C 197.066 53.379,197.284 53.923,197.489 54.542 C 197.693 55.160,197.911 55.667,197.973 55.667 C 198.035 55.667,198.184 55.985,198.304 56.375 C 198.424 56.765,198.742 57.552,199.011 58.125 C 199.280 58.699,199.500 59.250,199.500 59.351 C 199.500 59.452,199.676 59.885,199.891 60.312 C 200.105 60.740,200.416 61.501,200.582 62.003 C 200.747 62.506,200.935 62.954,200.998 63.000 C 201.062 63.046,201.250 63.443,201.416 63.883 C 201.833 64.986,202.788 65.392,203.358 64.708 C 203.665 64.340,204.614 62.351,204.760 61.771 C 204.820 61.530,204.922 61.333,204.987 61.333 C 205.052 61.333,205.283 60.827,205.501 60.208 C 205.719 59.590,205.995 58.984,206.115 58.863 C 206.235 58.742,206.333 58.540,206.333 58.415 C 206.333 58.289,206.633 57.549,207.000 56.770 C 207.367 55.991,207.667 55.242,207.667 55.105 C 207.667 54.969,207.768 54.756,207.892 54.632 C 208.015 54.509,208.211 54.110,208.327 53.745 C 208.443 53.381,208.743 52.671,208.994 52.167 C 209.244 51.663,209.547 50.952,209.667 50.588 C 209.786 50.224,209.985 49.825,210.108 49.701 C 210.232 49.577,210.333 49.364,210.333 49.228 C 210.333 49.091,210.622 48.365,210.976 47.615 C 211.329 46.864,211.677 46.063,211.748 45.833 C 211.820 45.604,211.928 45.379,211.989 45.333 C 212.122 45.233,212.833 43.520,212.833 43.299 C 212.833 43.213,212.939 43.037,213.069 42.907 C 213.199 42.777,213.435 42.276,213.594 41.794 C 213.753 41.311,213.947 40.874,214.026 40.822 C 214.106 40.771,214.327 40.283,214.518 39.739 C 214.709 39.195,214.919 38.712,214.985 38.667 C 215.051 38.621,215.282 38.096,215.500 37.500 C 215.718 36.904,215.943 36.379,216.001 36.333 C 216.059 36.287,216.239 35.913,216.401 35.501 C 217.255 33.335,218.287 32.333,219.664 32.333 C 220.834 32.333,221.712 31.578,220.903 31.268 C 220.559 31.136,210.441 31.136,210.097 31.268 C 209.237 31.598,210.230 32.333,211.536 32.333 C 212.391 32.333,212.833 32.585,212.833 33.072 C 212.833 33.516,212.203 35.661,211.998 35.917 C 211.924 36.008,211.695 36.608,211.490 37.250 C 211.285 37.892,211.070 38.454,211.013 38.500 C 210.957 38.546,210.732 39.108,210.513 39.750 C 210.295 40.392,210.059 40.992,209.989 41.083 C 209.919 41.175,209.694 41.737,209.490 42.333 C 209.285 42.929,209.071 43.454,209.014 43.500 C 208.957 43.546,208.730 44.108,208.510 44.750 C 208.289 45.392,208.018 46.067,207.906 46.250 C 207.795 46.433,207.611 46.883,207.498 47.250 C 207.385 47.617,207.125 48.292,206.920 48.750 C 206.716 49.208,206.451 49.883,206.332 50.250 C 206.213 50.617,206.023 51.067,205.910 51.250 C 205.797 51.433,205.611 51.883,205.498 52.250 C 205.385 52.617,205.121 53.298,204.911 53.764 C 204.702 54.229,204.436 54.926,204.320 55.311 C 204.067 56.157,203.983 56.083,203.496 54.583 C 203.288 53.942,203.069 53.379,203.011 53.333 C 202.953 53.288,202.723 52.688,202.500 52.000 C 202.277 51.313,202.044 50.712,201.983 50.667 C 201.921 50.621,201.711 50.064,201.515 49.430 C 201.320 48.795,201.094 48.195,201.014 48.096 C 200.934 47.997,200.709 47.397,200.514 46.763 C 200.319 46.128,200.096 45.528,200.019 45.430 C 199.941 45.331,199.708 44.725,199.500 44.083 C 199.292 43.442,199.059 42.836,198.981 42.737 C 198.904 42.638,198.680 42.038,198.485 41.404 C 198.289 40.769,198.073 40.212,198.004 40.167 C 197.935 40.121,197.704 39.521,197.491 38.833 C 197.278 38.146,197.057 37.546,197.000 37.500 C 196.943 37.454,196.726 36.869,196.517 36.200 C 196.309 35.530,196.032 34.780,195.903 34.533 C 195.225 33.232,195.716 32.333,197.105 32.333 C 197.906 32.333,198.333 32.070,198.333 31.577 L 198.333 31.167 191.361 31.167 C 187.526 31.167,184.339 31.217,184.278 31.278 M269.167 31.568 C 269.167 32.127,269.599 32.333,270.770 32.333 C 271.894 32.333,273.062 32.824,273.267 33.381 C 273.480 33.962,273.547 58.470,273.341 60.393 C 273.152 62.146,272.767 63.000,272.165 63.000 C 271.993 63.000,271.807 63.075,271.750 63.167 C 271.693 63.258,271.320 63.333,270.920 63.333 C 269.712 63.333,269.345 63.654,269.909 64.219 C 270.180 64.489,283.054 64.609,283.481 64.345 C 284.103 63.961,283.605 63.418,282.583 63.366 C 282.033 63.338,281.512 63.244,281.425 63.158 C 281.338 63.071,281.128 63.000,280.958 63.000 C 279.473 63.000,279.316 62.376,279.212 56.042 L 279.126 50.833 281.223 50.833 C 282.696 50.833,283.373 50.895,283.496 51.042 C 283.593 51.156,283.858 51.460,284.086 51.717 C 284.314 51.974,284.500 52.241,284.500 52.310 C 284.500 52.380,284.631 52.585,284.792 52.767 C 285.125 53.143,285.628 53.841,286.378 54.968 C 286.665 55.398,286.997 55.810,287.116 55.883 C 287.236 55.957,287.333 56.097,287.333 56.195 C 287.333 56.292,287.765 56.933,288.292 57.619 C 288.819 58.304,289.348 59.045,289.467 59.264 C 289.586 59.484,289.830 59.742,290.008 59.838 C 290.187 59.933,290.333 60.096,290.333 60.199 C 290.333 60.405,292.840 62.995,293.042 62.998 C 293.110 62.999,293.299 63.132,293.460 63.294 C 293.622 63.455,294.090 63.696,294.502 63.828 C 294.913 63.961,295.303 64.147,295.369 64.243 C 295.619 64.609,303.482 64.583,303.825 64.214 C 304.270 63.736,303.908 63.333,303.033 63.333 C 302.659 63.333,302.313 63.268,302.263 63.188 C 302.214 63.108,301.928 62.995,301.628 62.936 C 300.913 62.795,299.668 62.283,299.667 62.129 C 299.667 62.063,299.459 61.901,299.205 61.770 C 298.766 61.543,297.065 59.939,296.167 58.905 C 295.601 58.253,294.589 57.058,293.920 56.250 C 293.616 55.883,293.136 55.321,292.853 55.000 C 292.570 54.679,292.337 54.372,292.336 54.316 C 292.335 54.261,292.107 53.961,291.829 53.650 C 290.889 52.593,288.167 49.137,288.167 49.000 C 288.167 48.954,288.947 48.119,289.900 47.144 C 290.853 46.169,291.683 45.212,291.744 45.019 C 291.806 44.825,291.914 44.667,291.984 44.667 C 292.349 44.667,293.357 41.932,293.530 40.476 C 293.803 38.164,293.116 35.256,292.098 34.417 C 291.987 34.325,291.848 34.123,291.790 33.968 C 291.732 33.813,291.474 33.552,291.217 33.389 C 290.960 33.225,290.696 33.007,290.631 32.904 C 290.565 32.801,290.152 32.581,289.714 32.415 C 289.275 32.249,288.877 32.054,288.827 31.980 C 288.440 31.399,286.657 31.274,277.875 31.210 L 269.167 31.148 269.167 31.568 M349.384 31.443 C 349.215 31.882,349.919 32.333,350.774 32.333 C 351.881 32.333,352.610 32.697,352.747 33.318 C 352.809 33.601,352.929 33.833,353.013 33.833 C 353.211 33.833,353.220 60.448,353.022 60.570 C 352.942 60.619,352.840 61.037,352.796 61.498 C 352.709 62.397,352.313 63.000,351.808 63.000 C 351.638 63.000,351.500 63.071,351.500 63.158 C 351.500 63.245,351.069 63.339,350.542 63.367 C 349.599 63.416,349.583 63.425,349.583 63.917 L 349.583 64.417 356.333 64.455 C 363.967 64.499,363.876 64.506,363.802 63.869 C 363.752 63.434,363.708 63.415,362.667 63.371 C 362.071 63.346,361.471 63.276,361.333 63.216 C 361.196 63.156,360.784 63.027,360.418 62.929 C 359.184 62.597,359.250 63.456,359.250 47.667 C 359.250 31.620,359.157 32.679,360.584 32.450 C 362.513 32.140,362.580 32.113,362.636 31.625 L 362.689 31.167 356.089 31.167 C 350.101 31.167,349.480 31.192,349.384 31.443 M158.333 32.993 C 160.700 33.610,161.422 33.860,162.163 34.315 C 162.626 34.600,163.052 34.833,163.110 34.833 C 163.228 34.833,163.529 35.109,164.794 36.373 C 166.085 37.665,166.333 37.939,166.333 38.073 C 166.333 38.139,166.589 38.581,166.901 39.055 C 167.213 39.529,167.562 40.235,167.677 40.625 C 167.792 41.015,167.943 41.333,168.012 41.333 C 168.150 41.333,168.833 44.079,168.833 44.632 C 168.833 44.819,168.927 45.003,169.042 45.042 C 169.200 45.094,169.250 45.987,169.250 48.750 C 169.250 51.513,169.200 52.406,169.042 52.458 C 168.927 52.497,168.833 52.732,168.833 52.982 C 168.833 53.549,168.169 56.220,168.000 56.333 C 167.931 56.379,167.703 56.818,167.493 57.309 C 167.069 58.299,166.772 58.704,165.655 59.822 C 164.459 61.018,164.058 61.295,162.951 61.688 C 162.382 61.891,161.811 62.137,161.683 62.236 C 161.356 62.488,157.002 62.475,156.484 62.220 C 156.263 62.112,155.558 61.857,154.917 61.654 C 154.275 61.450,153.712 61.231,153.667 61.167 C 153.621 61.103,153.396 60.954,153.167 60.837 C 152.311 60.401,149.833 58.337,149.833 58.060 C 149.833 57.969,149.122 56.947,148.979 56.833 C 148.761 56.660,147.555 54.219,147.331 53.500 C 147.202 53.087,147.049 52.712,146.989 52.667 C 146.033 51.929,146.040 41.082,146.998 39.918 C 147.074 39.826,147.292 39.305,147.483 38.761 C 147.674 38.217,147.888 37.729,147.960 37.678 C 148.032 37.626,148.233 37.358,148.406 37.083 C 148.911 36.282,150.500 34.707,151.021 34.491 C 151.284 34.382,151.500 34.230,151.500 34.154 C 151.500 34.037,153.966 33.208,155.083 32.949 C 155.684 32.810,157.737 32.838,158.333 32.993 M283.329 33.764 C 283.819 33.910,284.325 34.135,284.455 34.264 C 284.584 34.394,284.776 34.500,284.881 34.500 C 285.140 34.500,286.667 36.019,286.667 36.277 C 286.667 36.391,286.773 36.543,286.903 36.617 C 287.212 36.790,287.637 38.018,287.772 39.125 C 287.831 39.606,287.944 40.000,288.023 40.000 C 288.209 40.000,288.211 42.383,288.025 42.592 C 287.948 42.679,287.792 43.288,287.679 43.946 C 287.066 47.526,283.759 49.297,279.990 48.064 L 279.167 47.795 279.167 40.743 C 279.167 34.167,279.186 33.686,279.458 33.615 C 280.172 33.428,282.501 33.518,283.329 33.764 M241.528 40.925 C 241.699 41.470,241.944 42.142,242.071 42.417 C 242.198 42.692,242.420 43.320,242.565 43.813 C 242.710 44.306,242.895 44.794,242.977 44.896 C 243.059 44.999,243.299 45.646,243.511 46.333 C 243.723 47.021,243.939 47.621,243.990 47.667 C 244.042 47.712,244.283 48.369,244.527 49.125 L 244.970 50.500 241.068 50.500 C 238.922 50.500,237.167 50.446,237.167 50.380 C 237.167 50.135,237.900 47.914,238.008 47.833 C 238.069 47.788,238.311 47.188,238.546 46.500 C 239.656 43.254,239.904 42.577,240.012 42.500 C 240.077 42.454,240.305 41.835,240.521 41.124 C 240.979 39.614,241.108 39.589,241.528 40.925 " stroke="none" fill="#00547a" fill-rule="evenodd"></path><path id="path1" d="M9.167 9.513 C 9.167 9.703,9.373 10.067,9.625 10.321 C 12.230 12.945,13.342 17.047,12.566 21.167 C 12.419 21.946,12.260 22.790,12.214 23.042 C 12.167 23.294,12.080 23.500,12.021 23.500 C 11.962 23.500,11.728 24.100,11.500 24.833 C 11.272 25.567,11.038 26.167,10.979 26.167 C 10.920 26.167,10.701 26.598,10.493 27.125 C 10.284 27.652,10.027 28.196,9.921 28.333 C 9.816 28.471,9.586 28.921,9.411 29.333 C 9.236 29.746,9.046 30.121,8.989 30.167 C 8.886 30.250,8.314 31.329,7.530 32.917 C 7.304 33.375,7.070 33.787,7.010 33.833 C 6.900 33.917,5.491 36.758,4.861 38.167 C 4.676 38.579,4.432 39.254,4.317 39.667 C 4.202 40.079,4.056 40.492,3.992 40.583 C 3.430 41.391,2.604 48.135,2.974 48.903 C 3.066 49.094,3.187 49.700,3.243 50.250 C 3.375 51.542,3.848 53.500,4.027 53.500 C 4.104 53.500,4.167 53.609,4.167 53.742 C 4.167 55.357,8.830 60.837,11.073 61.859 C 11.308 61.966,11.500 62.113,11.500 62.186 C 11.500 62.258,11.854 62.474,12.286 62.665 C 12.718 62.856,13.186 63.112,13.327 63.234 C 13.468 63.355,13.958 63.592,14.417 63.760 C 14.875 63.929,15.287 64.115,15.333 64.175 C 15.379 64.235,15.942 64.455,16.583 64.664 C 17.225 64.873,17.825 65.099,17.917 65.166 C 18.008 65.232,18.796 65.452,19.667 65.654 C 20.537 65.856,21.376 66.088,21.530 66.171 C 21.849 66.342,26.138 66.998,26.948 66.999 C 27.241 67.000,27.527 67.075,27.583 67.167 C 27.793 67.506,30.333 67.372,30.333 67.022 C 30.333 66.771,30.129 66.672,29.292 66.515 C 28.719 66.408,28.100 66.253,27.917 66.171 C 27.733 66.090,26.983 65.853,26.250 65.646 C 25.517 65.439,24.879 65.225,24.833 65.170 C 24.787 65.116,24.281 64.887,23.708 64.663 C 23.135 64.439,22.667 64.213,22.667 64.160 C 22.667 64.107,22.255 63.881,21.752 63.657 C 21.248 63.433,20.836 63.200,20.835 63.139 C 20.834 63.077,20.585 62.874,20.283 62.687 C 19.120 61.969,16.847 59.783,16.404 58.958 C 16.269 58.706,16.104 58.500,16.037 58.500 C 15.971 58.500,15.731 58.144,15.504 57.708 C 15.277 57.273,15.044 56.879,14.986 56.833 C 14.823 56.704,14.167 55.152,14.167 54.895 C 14.167 54.770,14.101 54.667,14.020 54.667 C 13.858 54.667,13.167 52.068,13.167 51.456 C 13.167 51.242,13.080 50.980,12.974 50.874 C 12.729 50.629,12.714 45.432,12.957 45.127 C 13.049 45.011,13.177 44.542,13.242 44.083 C 13.400 42.957,13.849 41.125,14.023 40.901 C 14.100 40.801,14.316 40.242,14.503 39.659 C 14.689 39.075,14.900 38.557,14.971 38.507 C 15.043 38.457,15.275 38.004,15.488 37.500 C 15.701 36.996,15.923 36.546,15.981 36.500 C 16.132 36.380,18.667 31.255,18.667 31.068 C 18.667 30.982,18.813 30.640,18.991 30.307 C 19.169 29.974,19.438 29.225,19.589 28.643 C 19.740 28.060,19.929 27.504,20.010 27.406 C 20.790 26.462,20.800 18.771,20.022 18.167 C 19.963 18.121,19.812 17.783,19.687 17.417 C 19.340 16.403,18.135 14.647,17.083 13.621 C 16.434 12.987,14.262 11.333,14.079 11.333 C 14.002 11.333,13.783 11.197,13.594 11.031 C 13.405 10.864,12.912 10.585,12.500 10.410 C 12.088 10.236,11.709 10.035,11.658 9.965 C 11.549 9.814,9.711 9.167,9.391 9.167 C 9.267 9.167,9.167 9.322,9.167 9.513 " stroke="none" fill="#c21d36" fill-rule="evenodd"></path><path id="path2" d="M43.778 27.778 C 43.547 28.008,43.680 28.451,44.042 28.654 C 44.248 28.770,44.679 29.198,45.000 29.606 C 45.321 30.014,45.701 30.480,45.844 30.643 C 46.509 31.396,48.074 34.298,48.599 35.750 C 48.764 36.208,48.946 36.621,49.002 36.667 C 49.059 36.712,49.281 37.387,49.496 38.167 C 49.711 38.946,49.942 39.658,50.010 39.750 C 50.294 40.136,51.022 45.462,51.024 47.167 C 51.026 48.874,50.335 53.473,50.010 53.917 C 49.943 54.008,49.711 54.571,49.496 55.167 C 49.281 55.762,49.054 56.288,48.992 56.333 C 48.930 56.379,48.749 56.679,48.589 57.000 C 47.746 58.690,44.953 61.856,43.320 62.973 C 41.524 64.202,39.402 65.341,38.131 65.759 C 37.646 65.919,37.212 66.100,37.167 66.162 C 37.121 66.224,36.727 66.373,36.292 66.492 C 35.707 66.653,35.500 66.791,35.500 67.022 C 35.500 67.370,36.891 67.482,37.461 67.179 C 37.620 67.095,38.828 66.865,40.146 66.668 C 41.464 66.471,42.664 66.245,42.813 66.165 C 42.962 66.086,43.796 65.856,44.667 65.654 C 45.538 65.452,46.325 65.229,46.417 65.159 C 46.508 65.089,47.033 64.903,47.583 64.746 C 48.133 64.589,48.771 64.361,49.000 64.241 C 49.229 64.120,50.092 63.703,50.917 63.313 C 53.801 61.951,56.076 60.209,58.074 57.833 C 58.395 57.452,59.667 55.290,59.667 55.126 C 59.667 55.047,59.810 54.667,59.985 54.283 C 60.947 52.171,60.954 46.116,59.997 44.355 C 59.916 44.206,59.692 43.619,59.500 43.051 C 59.190 42.132,58.730 41.215,57.525 39.115 C 57.325 38.766,57.086 38.391,56.995 38.282 C 56.904 38.173,56.474 37.596,56.040 37.000 C 55.605 36.404,55.063 35.725,54.833 35.491 C 54.604 35.257,54.105 34.732,53.724 34.325 C 53.344 33.917,52.819 33.394,52.558 33.162 C 51.215 31.971,50.194 31.167,50.024 31.167 C 49.919 31.167,49.833 31.098,49.833 31.014 C 49.833 30.929,49.552 30.690,49.208 30.481 C 48.865 30.272,48.546 30.054,48.500 29.996 C 48.454 29.939,48.079 29.712,47.667 29.493 C 47.254 29.273,46.804 29.004,46.667 28.894 C 46.529 28.784,46.079 28.561,45.667 28.398 C 45.254 28.234,44.818 28.003,44.696 27.884 C 44.461 27.652,43.961 27.594,43.778 27.778 " stroke="none" fill="#e9923e" fill-rule="evenodd"></path><path id="path3" d="" stroke="none" fill="#00ffff" fill-rule="evenodd"></path><path id="path4" d="" stroke="none" fill="#ffff00" fill-rule="evenodd"></path></g></svg>